<?xml version="1.0" encoding="UTF-8"?>
<svg version="1.1" xmlns="http://www.w3.org/2000/svg" width="512" height="512">
<path d="M0 0 C0.8383136 -0.00852997 1.6766272 -0.01705994 2.54034424 -0.02584839 C3.45677704 -0.02494202 4.37320984 -0.02403564 5.31741333 -0.02310181 C6.285177 -0.02981903 7.25294067 -0.03653625 8.25003052 -0.04345703 C11.45629988 -0.06248929 14.66236049 -0.0663639 17.86868286 -0.06851196 C20.09444262 -0.07493634 22.32020151 -0.08166442 24.54595947 -0.08868408 C29.21491453 -0.10067 33.88379553 -0.10436356 38.55276489 -0.10317993 C44.53741634 -0.10297669 50.52159318 -0.13027875 56.50613213 -0.16472435 C61.10435164 -0.18695518 65.70245627 -0.19101864 70.30072403 -0.18996048 C72.50714885 -0.1923222 74.71357657 -0.20117768 76.91994858 -0.21662521 C80.00590041 -0.2362072 83.0908201 -0.23047737 86.17678833 -0.21841431 C87.08917267 -0.22965332 88.00155701 -0.24089233 88.94158936 -0.25247192 C93.12146223 -0.21092358 95.29595747 -0.10029375 98.90145874 2.18347168 C102.85152485 6.35137187 103.1219115 9.28998523 103.07180786 15.00180054 C103.06536255 16.29730835 103.05891724 17.59281616 103.05227661 18.92758179 C103.03556729 20.29086572 103.01863742 21.65414697 103.00149536 23.01742554 C102.99145876 24.39632538 102.98233409 25.77523219 102.97415161 27.15414429 C102.9505763 30.52541436 102.91766806 33.8963319 102.87649536 37.26742554 C103.89682861 37.52265991 103.89682861 37.52265991 104.93777466 37.78305054 C111.44187145 39.47356494 117.53304938 41.58522795 123.68899536 44.26742554 C124.49530396 44.61031616 125.30161255 44.95320679 126.13235474 45.30648804 C129.58065104 46.78392652 132.90317996 48.28197507 136.20071411 50.07992554 C138.68150916 51.44142464 138.68150916 51.44142464 140.77761841 51.09164429 C143.56283434 49.99790357 145.05314989 48.41235417 147.13430786 46.26742554 C147.92450317 45.46305054 148.71469849 44.65867554 149.52883911 43.82992554 C150.34481567 42.98430054 151.16079224 42.13867554 152.00149536 41.26742554 C153.62698237 39.59869396 155.25448643 37.93192402 156.88430786 36.26742554 C157.60247681 35.52492554 158.32064575 34.78242554 159.06057739 34.01742554 C162.0930117 31.09506884 164.46478882 31.07833004 168.61087036 30.84164429 C174.63016513 31.97285658 179.24349472 37.34181472 183.40090942 41.5171814 C184.02280151 42.13396255 184.6446936 42.75074371 185.28543091 43.38621521 C187.3261598 45.41311751 189.35944931 47.44728854 191.39212036 49.48226929 C192.81343031 50.89968983 194.23496286 52.3168872 195.65670776 53.73387146 C198.62889299 56.69861038 201.59719289 59.66717514 204.5630188 62.63827515 C208.36323693 66.44429996 212.17472714 70.23881014 215.98941422 74.03032589 C218.92514043 76.95132362 221.85391408 79.87921528 224.78072357 82.80914497 C226.18340202 84.21131024 227.58844412 85.61111515 228.99588776 87.00849724 C230.96106111 88.96133483 232.91645601 90.92347523 234.86965942 92.88827515 C235.45148987 93.46246185 236.03332031 94.03664856 236.63278198 94.62823486 C240.88051748 98.93191446 242.75717004 101.92069416 243.06399536 107.95492554 C241.90032243 115.16699152 235.07743463 120.19896415 230.02102661 124.95101929 C228.65010864 126.25232788 228.65010864 126.25232788 227.25149536 127.57992554 C226.39297974 128.35980835 225.53446411 129.13969116 224.64993286 129.94320679 C222.58739417 132.09283856 222.58739417 132.09283856 223.12942505 134.59188843 C223.89715234 137.34140588 224.87432642 139.80247028 226.05618286 142.40023804 C226.49059692 143.37219116 226.92501099 144.34414429 227.37258911 145.34555054 C228.28172863 147.35441406 229.19313596 149.36225302 230.10696411 151.36898804 C233.01557787 157.88977404 235.21396182 164.32229824 236.87649536 171.26742554 C237.75386353 171.24124146 238.63123169 171.21505737 239.53518677 171.18807983 C242.81172293 171.10251645 246.08706095 171.04001686 249.36428833 170.99276733 C250.77854218 170.96772628 252.19266793 170.93368212 253.60647583 170.89022827 C266.88052888 170.4926615 266.88052888 170.4926615 270.77493286 173.66195679 C274.4111014 178.16999474 274.04312921 181.88791868 274.06936646 187.4871521 C274.07754395 188.44340988 274.08572144 189.39966766 274.09414673 190.38490295 C274.11902187 193.55927906 274.13552256 196.73361037 274.14993286 199.90805054 C274.15525654 200.99095116 274.16058022 202.07385178 274.16606522 203.18956757 C274.19280653 208.92173048 274.21217795 214.65387154 274.22659302 220.38607788 C274.24323946 226.30906431 274.28801489 232.23149417 274.33896446 238.15427017 C274.37261075 242.70619348 274.38416765 247.25798431 274.3898201 251.81002045 C274.39654022 253.99331666 274.4117819 256.17660393 274.43571091 258.35977936 C274.46730705 261.41702177 274.46740716 264.47275822 274.45999146 267.53012085 C274.47639679 268.43113022 274.49280212 269.33213959 274.50970459 270.26045227 C274.46694042 274.57034022 274.22645424 277.39213401 271.46502686 280.81350708 C267.50964367 284.56319598 265.49722732 284.38768071 260.11868286 284.36508179 C259.12410568 284.36295937 259.12410568 284.36295937 258.10943604 284.36079407 C255.99007673 284.35519308 253.87082277 284.34264054 251.75149536 284.32992554 C250.31529897 284.32491066 248.87910092 284.32034773 247.44290161 284.31625366 C243.92073191 284.30522336 240.39862392 284.28795813 236.87649536 284.26742554 C236.71286499 284.93459595 236.54923462 285.60176636 236.38064575 286.28915405 C234.59462891 293.23127115 232.21560996 299.65854219 229.31399536 306.20492554 C228.91503052 307.12338257 228.51606567 308.0418396 228.10501099 308.98812866 C225.0844099 315.91181028 225.0844099 315.91181028 223.68533325 318.30477905 C222.7204596 320.22689734 222.7204596 320.22689734 223.03323364 322.28744507 C224.08696267 324.76160326 225.41629712 326.09991944 227.36868286 327.94711304 C228.07380005 328.6290271 228.77891724 329.31094116 229.50540161 330.01351929 C230.99478145 331.42519235 232.48436261 332.83665304 233.97415161 334.24789429 C238.96968809 339.07964269 242.76654725 342.85903416 243.00149536 350.14242554 C241.1779261 360.05592837 228.11324566 369.19469653 221.20852661 376.10336304 C219.88282697 377.43228089 218.55720056 378.76127179 217.23164368 380.09033203 C214.46732421 382.86060843 211.70097715 385.62884169 208.93338013 388.39584351 C205.38752703 391.94159443 201.84863675 395.49420931 198.31142139 399.04857445 C195.58251361 401.78858824 192.84908567 404.52405771 190.11435509 407.25825882 C188.80700733 408.56678601 187.5012794 409.87693365 186.19721413 411.18873215 C184.37862513 413.01710547 182.55382572 414.83904991 180.72732544 416.65951538 C180.19165955 417.20080078 179.65599365 417.74208618 179.10409546 418.29977417 C175.14677096 422.22391615 172.62388008 424.00531783 167.12649536 424.82992554 C160.82236436 424.59858128 157.43717793 419.96865318 153.33743286 415.64389038 C152.20523765 414.45014851 151.06798621 413.26118442 149.92605591 412.07675171 C148.7790952 410.88207486 147.64724931 409.67267825 146.53201294 408.44833374 C143.52175573 405.15553961 143.52175573 405.15553961 139.35696411 404.20492554 C136.46107036 405.44537136 133.65465338 406.78143404 130.87649536 408.26742554 C130.91130005 409.45078491 130.94610474 410.63414429 130.98196411 411.85336304 C131.27239848 425.71353631 130.08474633 436.42928481 120.24758911 447.02133179 C115.53046174 451.3882316 109.44426797 455.26742554 102.87649536 455.26742554 C102.86231567 456.18781616 102.84813599 457.10820679 102.83352661 458.05648804 C102.19243098 475.07151258 96.48372056 488.10454385 84.18899536 500.07992554 C73.15099457 509.58487066 60.37920774 512.62619888 46.18899536 512.64242554 C45.08104614 512.66691772 43.97309692 512.69140991 42.83157349 512.71664429 C27.69656213 512.76971855 15.13824637 506.9855761 4.23196411 496.70492554 C-7.15029436 484.92627001 -10.87728924 471.24904339 -11.12350464 455.26742554 C-12.0116687 455.1552771 -12.89983276 455.04312866 -13.81491089 454.92758179 C-22.36367646 453.22186587 -29.28794469 447.34071801 -34.12350464 440.26742554 C-38.38404795 432.49972767 -39.27563765 425.69069629 -39.18600464 416.95492554 C-39.18149292 416.11896851 -39.1769812 415.28301147 -39.17233276 414.42172241 C-39.16061012 412.37025905 -39.14267667 410.31883281 -39.12350464 408.26742554 C-40.36527159 407.56516413 -41.61736063 406.88113445 -42.87350464 406.20492554 C-43.56959839 405.82207397 -44.26569214 405.43922241 -44.98287964 405.04476929 C-47.60890115 404.09115929 -48.57164461 404.15624216 -51.12350464 405.26742554 C-53.28259972 407.02965242 -53.28259972 407.02965242 -55.38131714 409.26742554 C-56.56661011 410.47398804 -56.56661011 410.47398804 -57.77584839 411.70492554 C-58.59182495 412.55055054 -59.40780151 413.39617554 -60.24850464 414.26742554 C-61.87399165 415.93615712 -63.50149571 417.60292705 -65.13131714 419.26742554 C-65.84948608 420.00992554 -66.56765503 420.75242554 -67.30758667 421.51742554 C-70.34002097 424.43978223 -72.7117981 424.45652103 -76.85787964 424.69320679 C-82.87717441 423.56199449 -87.490504 418.19303636 -91.6479187 414.01766968 C-92.26981079 413.40088852 -92.89170288 412.78410736 -93.53244019 412.14863586 C-95.57316908 410.12173356 -97.60645859 408.08756253 -99.63912964 406.05258179 C-101.06043959 404.63516124 -102.48197213 403.21796387 -103.90371704 401.80097961 C-106.87590227 398.83624069 -109.84420216 395.86767594 -112.81002808 392.89657593 C-116.61024621 389.09055112 -120.42173642 385.29604094 -124.23642349 381.50452518 C-127.17214971 378.58352745 -130.10092335 375.65563579 -133.02773285 372.7257061 C-134.4304113 371.32354083 -135.8354534 369.92373592 -137.24289703 368.52635384 C-139.20807039 366.57351625 -141.16346529 364.61137584 -143.1166687 362.64657593 C-143.69849915 362.07238922 -144.28032959 361.49820251 -144.87979126 360.90661621 C-149.12752676 356.60293662 -151.00417931 353.61415691 -151.31100464 347.57992554 C-150.1473317 340.36785955 -143.32444391 335.33588693 -138.26803589 330.58383179 C-136.89711792 329.28252319 -136.89711792 329.28252319 -135.49850464 327.95492554 C-134.63998901 327.17504272 -133.78147339 326.39515991 -132.89694214 325.59164429 C-130.89612626 323.45448105 -130.89612626 323.45448105 -131.11569214 321.00180054 C-132.52141555 317.1878223 -134.16316108 313.51590316 -135.87350464 309.82992554 C-145.12350464 289.48325288 -145.12350464 289.48325288 -145.12350464 284.26742554 C-146.0008728 284.29360962 -146.87824097 284.3197937 -147.78219604 284.34677124 C-151.05873221 284.43233463 -154.33407022 284.49483421 -157.61129761 284.54208374 C-159.02555146 284.56712479 -160.43967721 284.60116895 -161.85348511 284.6446228 C-175.12753816 285.04218958 -175.12753816 285.04218958 -179.02194214 281.87289429 C-182.65811068 277.36485634 -182.29013848 273.64693239 -182.31637573 268.04769897 C-182.32455322 267.09144119 -182.33273071 266.13518341 -182.34115601 265.14994812 C-182.36603115 261.97557201 -182.38253184 258.8012407 -182.39694214 255.62680054 C-182.40226582 254.54389992 -182.40758949 253.4609993 -182.41307449 252.34528351 C-182.43981581 246.6131206 -182.45918723 240.88097954 -182.47360229 235.14877319 C-182.49024874 229.22578677 -182.53502417 223.3033569 -182.58597374 217.3805809 C-182.61962003 212.82865759 -182.63117693 208.27686677 -182.63682938 203.72483063 C-182.6435495 201.54153441 -182.65879118 199.35824714 -182.68272018 197.17507172 C-182.71431632 194.1178293 -182.71441643 191.06209285 -182.70700073 188.00473022 C-182.72340607 187.10372086 -182.7398114 186.20271149 -182.75671387 185.2743988 C-182.7139497 180.96451085 -182.47346352 178.14271707 -179.71203613 174.72134399 C-175.80310965 171.01569588 -173.68388875 171.10743683 -168.36569214 170.95101929 C-167.70264069 170.93023819 -167.03958923 170.90945709 -166.35644531 170.88804626 C-164.23723769 170.82263323 -162.11790564 170.76370449 -159.99850464 170.70492554 C-158.56229383 170.66173244 -157.12609562 170.61811789 -155.68991089 170.57406616 C-152.1679087 170.46696055 -148.64576639 170.36566979 -145.12350464 170.26742554 C-144.83161255 169.3206897 -144.53972046 168.37395386 -144.23898315 167.39852905 C-141.49030004 158.57253498 -138.01901378 150.29092682 -133.98312378 141.9715271 C-133.59890259 141.1578064 -133.2146814 140.34408569 -132.81881714 139.50570679 C-132.46835327 138.78423462 -132.1178894 138.06276245 -131.75680542 137.31942749 C-130.97742125 134.79409058 -131.10430057 133.697394 -132.12350464 131.26742554 C-133.65806227 129.36919628 -133.65806227 129.36919628 -135.61569214 127.58773804 C-136.32080933 126.90582397 -137.02592651 126.22390991 -137.75241089 125.52133179 C-139.24179073 124.10965872 -140.73137189 122.69819804 -142.22116089 121.28695679 C-147.21669737 116.45520839 -151.01355653 112.67581691 -151.24850464 105.39242554 C-149.42493538 95.47892271 -136.36025494 86.34015454 -129.45553589 79.43148804 C-128.12983625 78.10257019 -126.80420984 76.77357929 -125.47865295 75.44451904 C-122.71433348 72.67424265 -119.94798643 69.90600939 -117.1803894 67.13900757 C-113.6345363 63.59325664 -110.09564603 60.04064176 -106.55843067 56.48627663 C-103.82952288 53.74626284 -101.09609495 51.01079337 -98.36136436 48.27659225 C-97.05401661 46.96806507 -95.74828868 45.65791742 -94.4442234 44.34611893 C-92.6256344 42.5177456 -90.800835 40.69580116 -88.97433472 38.87533569 C-88.43866882 38.33405029 -87.90300293 37.79276489 -87.35110474 37.2350769 C-83.39378023 33.31093492 -80.87088936 31.52953325 -75.37350464 30.70492554 C-69.06937364 30.93626979 -65.68418721 35.56619789 -61.58444214 39.89096069 C-60.45224692 41.08470257 -59.31499549 42.27366665 -58.17306519 43.45809937 C-57.02610448 44.65277621 -55.89425858 45.86217283 -54.77902222 47.08651733 C-51.78627128 50.36325314 -51.78627128 50.36325314 -47.65084839 51.34164429 C-44.50758571 50.00563619 -41.43592852 48.59442119 -38.37350464 47.07992554 C-32.63093785 44.30737755 -26.82869079 41.93971448 -20.81100464 39.82992554 C-20.07591675 39.57122681 -19.34082886 39.31252808 -18.58346558 39.04598999 C-13.40569069 37.26742554 -13.40569069 37.26742554 -11.12350464 37.26742554 C-11.1444519 36.42035034 -11.16539917 35.57327515 -11.1869812 34.70053101 C-11.25544519 31.53602161 -11.30544451 28.37189163 -11.3432312 25.20687866 C-11.36325783 23.84119186 -11.39048796 22.47558985 -11.42526245 21.11019897 C-11.47416896 19.13955452 -11.49441811 17.16826571 -11.51412964 15.19711304 C-11.5350769 14.01359253 -11.55602417 12.83007202 -11.5776062 11.61068726 C-11.02590365 7.54885137 -9.67328564 5.44055029 -7.12350464 2.26742554 C-4.06227171 0.22660358 -3.44657856 0.01586412 0 0 Z M11.87649536 22.26742554 C11.54649536 31.50742554 11.21649536 40.74742554 10.87649536 50.26742554 C6.38418767 55.88281015 6.38418767 55.88281015 1.31790161 57.37289429 C-0.33024536 57.88118774 -0.33024536 57.88118774 -2.01168823 58.39974976 C-3.18296265 58.74795776 -4.35423706 59.09616577 -5.56100464 59.45492554 C-18.86082245 63.62976425 -32.06673039 68.55469101 -43.91647339 76.02914429 C-46.3316905 77.3842307 -47.81141013 77.7000243 -50.56100464 77.70492554 C-51.28159058 77.72426147 -52.00217651 77.74359741 -52.74459839 77.76351929 C-59.32692965 76.39084922 -63.98692608 70.65144778 -68.49850464 66.01742554 C-69.1391687 65.36773804 -69.77983276 64.71805054 -70.43991089 64.04867554 C-72.00580352 62.45941137 -73.56588012 60.86478093 -75.12350464 59.26742554 C-81.00325514 64.1446699 -86.39231281 69.40629432 -91.77584839 74.82211304 C-92.6759816 75.72366119 -93.57611481 76.62520935 -94.50352478 77.55407715 C-96.87423287 79.92940771 -99.24274979 82.30687959 -101.61019897 84.68545532 C-104.03531192 87.12087271 -106.46332549 89.55339466 -108.89108276 91.98617554 C-113.63787591 96.74395322 -118.38179745 101.50457933 -123.12350464 106.26742554 C-122.19194988 107.37368158 -121.25754644 108.4775391 -120.32199097 109.58041382 C-119.80195999 110.19538727 -119.28192902 110.81036072 -118.74613953 111.44396973 C-117.22217645 113.15654188 -115.63991138 114.71520718 -113.94772339 116.25961304 C-113.43016479 116.73785522 -112.9126062 117.21609741 -112.37936401 117.70883179 C-111.32694807 118.67081597 -110.26149345 119.61871254 -109.18405151 120.55258179 C-105.55778245 123.96392696 -104.09731284 126.87999567 -103.84640503 131.89291382 C-104.37392439 136.4133132 -106.69069739 139.92456774 -108.99850464 143.76742554 C-115.91494657 156.04500126 -121.13323783 169.24496982 -124.82662964 182.85922241 C-125.15920776 184.04354858 -125.15920776 184.04354858 -125.49850464 185.25180054 C-125.67123901 185.9346814 -125.84397339 186.61756226 -126.02194214 187.32113647 C-127.12350464 189.26742554 -127.12350464 189.26742554 -133.12350464 193.26742554 C-141.70350464 193.59742554 -150.28350464 193.92742554 -159.12350464 194.26742554 C-159.12350464 216.37742554 -159.12350464 238.48742554 -159.12350464 261.26742554 C-150.87350464 261.59742554 -142.62350464 261.92742554 -134.12350464 262.26742554 C-127.28350464 265.68742554 -127.28350464 265.68742554 -125.12350464 271.26742554 C-124.3308934 273.69140443 -123.58402648 276.13062666 -122.87350464 278.57992554 C-119.71660867 289.00713836 -115.97505646 299.27676755 -110.63912964 308.80258179 C-110.22179565 309.5503186 -109.80446167 310.29805542 -109.3744812 311.06845093 C-108.5653772 312.49069912 -107.73517832 313.90123936 -106.88034058 315.29647827 C-104.43560247 319.55367645 -103.35882061 323.0316744 -104.19332886 327.94271851 C-106.18117554 332.91076999 -110.32359152 336.27205447 -114.18600464 339.82992554 C-115.04000854 340.64783569 -115.89401245 341.46574585 -116.77389526 342.30844116 C-118.87344 344.3141515 -120.98927915 346.2987673 -123.12350464 348.26742554 C-118.24626027 354.14717603 -112.98463586 359.5362337 -107.56881714 364.91976929 C-106.66726898 365.8199025 -105.76572083 366.72003571 -104.83685303 367.64744568 C-102.46152247 370.01815377 -100.08405059 372.38667069 -97.70547485 374.75411987 C-95.27005747 377.17923282 -92.83753551 379.60724639 -90.40475464 382.03500366 C-85.64697695 386.78179681 -80.88635084 391.52571835 -76.12350464 396.26742554 C-75.00741584 395.31964745 -73.89258905 394.37038311 -72.77828979 393.42050171 C-72.15733429 392.89204147 -71.53637878 392.36358124 -70.89660645 391.81910706 C-67.86103949 389.16261371 -65.12084764 386.23035261 -62.33444214 383.31820679 C-57.95687652 379.25774398 -54.59470426 377.60406995 -48.62106323 377.80941772 C-42.75343155 378.88543699 -37.73467698 382.52591119 -32.67623901 385.53305054 C-27.5085852 388.65054082 -27.5085852 388.65054082 -21.68991089 388.70492554 C-20.84299683 388.23055054 -19.99608276 387.75617554 -19.12350464 387.26742554 C-18.00975464 386.73117554 -16.89600464 386.19492554 -15.74850464 385.64242554 C-14.44912964 384.96180054 -14.44912964 384.96180054 -13.12350464 384.26742554 C-13.99972748 372.43841715 -18.43287667 364.34396919 -27.12350464 356.26742554 C-29.74225603 354.21295745 -32.42207305 352.29615957 -35.15475464 350.39633179 C-43.6206345 344.32540478 -51.73958056 337.53467646 -58.12350464 329.26742554 C-58.72992798 328.49471313 -58.72992798 328.49471313 -59.34860229 327.70639038 C-82.45801619 298.07744411 -92.78740615 261.59109306 -88.62741089 224.10726929 C-85.11900874 197.90785351 -74.28430733 174.31044798 -57.12350464 154.26742554 C-56.06002808 153.02025757 -56.06002808 153.02025757 -54.97506714 151.74789429 C-45.57922053 141.01684842 -35.2238715 132.69731418 -23.12350464 125.26742554 C-22.52940796 124.90229858 -21.93531128 124.53717163 -21.32321167 124.16098022 C7.08805563 107.07161478 43.71919152 102.10081832 75.90579224 109.76693726 C99.8186046 115.83993841 120.66776006 126.53707199 138.87649536 143.26742554 C139.74790161 144.05633179 140.61930786 144.84523804 141.51712036 145.65805054 C165.76402816 168.68498813 180.01659782 202.75928939 181.07962036 236.03695679 C181.48166045 261.79042333 176.40672852 285.67182082 163.87649536 308.26742554 C163.29899536 309.34637085 162.72149536 310.42531616 162.12649536 311.53695679 C158.10623303 318.78645761 153.28532721 325.00558794 147.87649536 331.26742554 C147.30157349 331.97640991 146.72665161 332.68539429 146.13430786 333.41586304 C140.49949995 340.2369463 133.58536616 345.50716462 126.52493286 350.77914429 C116.27025708 358.45067091 107.93001932 365.51252889 105.41555786 378.68148804 C105.17305181 380.53633165 105.0146819 382.40190725 104.87649536 384.26742554 C106.403955 385.16699663 107.94931775 386.03620957 109.50149536 386.89242554 C110.36001099 387.37969116 111.21852661 387.86695679 112.10305786 388.36898804 C115.85170062 389.5833371 117.30171212 388.88156079 120.87649536 387.26742554 C124.41529175 385.39378652 127.89189462 383.41195209 131.33547974 381.36898804 C136.46917065 378.50194035 140.98263645 377.18591868 146.87649536 378.26742554 C154.66750672 382.26091092 160.83749849 390.04725876 166.87649536 396.26742554 C172.75624586 391.39018117 178.14530353 386.12855676 183.52883911 380.71273804 C184.42897232 379.81118988 185.32910553 378.90964172 186.2565155 377.98077393 C188.62722359 375.60544337 190.99574051 373.22797149 193.3631897 370.84939575 C195.78830265 368.41397837 198.21631621 365.98145641 200.64407349 363.54867554 C205.39086664 358.79089785 210.13478818 354.03027174 214.87649536 349.26742554 C213.94494061 348.1611695 213.01053716 347.05731198 212.07498169 345.95443726 C211.55495071 345.33946381 211.03491974 344.72449036 210.49913025 344.09088135 C208.97516717 342.37830919 207.3929021 340.81964389 205.70071411 339.27523804 C205.18315552 338.79699585 204.66559692 338.31875366 204.13235474 337.82601929 C203.07993879 336.8640351 202.01448417 335.91613853 200.93704224 334.98226929 C197.32152314 331.58103695 195.84323793 328.6675785 195.59060669 323.66830444 C196.14347437 319.02534908 198.5262679 315.35492252 200.87649536 311.39242554 C207.08249824 300.27687253 211.46604358 288.97615287 215.27102661 276.85336304 C215.4909729 276.1622644 215.71091919 275.47116577 215.93753052 274.75912476 C216.52148181 272.90258749 217.08083481 271.03836266 217.63821411 269.17367554 C218.98046108 266.02341766 219.93387174 264.93284923 222.87649536 263.26742554 C231.75343177 260.30844673 241.52685952 261.64141097 250.87649536 261.26742554 C250.87649536 239.15742554 250.87649536 217.04742554 250.87649536 194.26742554 C238.00649536 193.77242554 238.00649536 193.77242554 224.87649536 193.26742554 C216.93539274 188.50276396 215.85721832 181.38391919 213.18899536 172.95492554 C209.23027785 160.76651011 204.59266884 149.18446045 197.81399536 138.26742554 C195.73859356 134.5295697 195.43655384 131.93841591 196.01882935 127.73275757 C197.79513485 122.6268273 202.0511609 119.28621353 205.93899536 115.70492554 C206.79299927 114.88701538 207.64700317 114.06910522 208.52688599 113.22640991 C210.62643072 111.22069958 212.74226988 109.23608377 214.87649536 107.26742554 C209.999251 101.38767504 204.73762658 95.99861737 199.32180786 90.61508179 C197.96948563 89.26488197 197.96948563 89.26488197 196.58984375 87.8874054 C194.21451319 85.51669731 191.83704131 83.14818038 189.45846558 80.7807312 C187.02304819 78.35561825 184.59052624 75.92760469 182.15774536 73.49984741 C177.39996767 68.75305426 172.63934157 64.00913272 167.87649536 59.26742554 C166.76557634 60.20977153 165.65607038 61.15378351 164.54714966 62.09848022 C163.62013496 62.88675201 163.62013496 62.88675201 162.6743927 63.69094849 C159.32352216 66.62914211 156.29604453 69.88647679 153.20852661 73.09555054 C149.14063813 76.8840698 145.79949727 77.78003347 140.33889771 77.64633179 C135.77422193 76.94393472 132.12418167 74.57669203 128.18899536 72.26742554 C116.80437897 65.93911383 104.78994139 60.83948607 92.15139771 57.56039429 C90.83002808 57.21428101 90.83002808 57.21428101 89.48196411 56.86117554 C88.69329956 56.67232788 87.90463501 56.48348022 87.09207153 56.28890991 C84.87649536 55.26742554 84.87649536 55.26742554 80.87649536 50.26742554 C80.54649536 41.02742554 80.21649536 31.78742554 79.87649536 22.26742554 C57.43649536 22.26742554 34.99649536 22.26742554 11.87649536 22.26742554 Z M16.87649536 132.26742554 C15.65446411 132.60773804 14.43243286 132.94805054 13.17337036 133.29867554 C-16.67973296 142.38974404 -39.81397094 163.9356526 -55.06881714 190.67758179 C-59.7697125 199.54009231 -62.73111201 208.55450918 -65.12350464 218.26742554 C-65.37100464 219.26000366 -65.61850464 220.25258179 -65.87350464 221.27523804 C-71.67277103 249.54666169 -64.13123833 279.71047571 -48.95944214 303.77914429 C-39.74154045 317.54085265 -28.67776163 327.4739981 -15.51022339 337.19711304 C0.61751682 349.28595457 6.19237659 364.11000792 9.87649536 383.26742554 C18.12649536 383.26742554 26.37649536 383.26742554 34.87649536 383.26742554 C35.08029228 372.99222864 35.24520209 362.71838598 35.34280491 352.44162083 C35.38966359 347.66900272 35.45315638 342.89784547 35.55545044 338.12606812 C35.65365588 333.51586119 35.70713807 328.90705387 35.73039055 324.29588127 C35.74694749 322.54192008 35.77928212 320.78803068 35.82806587 319.03466988 C36.29811427 309.21572824 36.29811427 309.21572824 32.94482422 300.24615479 C30.70336436 297.97514439 28.4683456 296.11913457 25.87649536 294.26742554 C24.61650488 293.17467304 23.36458311 292.07243292 22.12649536 290.95492554 C21.48196411 290.40191772 20.83743286 289.84890991 20.17337036 289.27914429 C17.18825338 286.66462857 14.28446281 283.96714767 11.37649536 281.26742554 C7.13189525 277.32888536 2.85752738 273.44110585 -1.53756714 269.66976929 C-3.12350464 268.26742554 -3.12350464 268.26742554 -4.70944214 266.58383179 C-6.04548631 265.04029848 -6.04548631 265.04029848 -8.12350464 265.26742554 C-10.23688055 261.04067372 -10.96741236 256.92252944 -10.12350464 252.26742554 C-7.79184275 247.91499001 -7.79184275 247.91499001 -5.12350464 246.26742554 C-1.57577873 245.36680215 1.3557909 245.26291685 4.87649536 246.26742554 C11.0365015 250.04776957 16.19613345 255.21800154 21.37649536 260.20492554 C26.76580619 265.36354638 32.2190117 270.40336947 37.87649536 275.26742554 C38.55131958 275.84798706 39.2261438 276.42854858 39.92141724 277.02670288 C41.57102366 278.44271119 43.22344213 279.85544257 44.87649536 281.26742554 C47.74643724 279.94863386 49.96395283 278.49647252 52.31399536 276.39242554 C53.00622192 275.77367554 53.69844849 275.15492554 54.41165161 274.51742554 C58.49930722 270.7860632 62.56329224 267.02927904 66.62649536 263.27133179 C71.00435173 259.22438985 75.37894148 255.18181524 79.87649536 251.26742554 C80.48880005 250.71828491 81.10110474 250.16914429 81.73196411 249.60336304 C85.6671314 246.37958754 88.84869368 245.55553568 93.79055786 245.83383179 C96.93465195 246.48737943 98.70796865 247.9633659 100.87649536 250.26742554 C102.86133574 254.23710629 102.21557229 258.96763064 101.12649536 263.14242554 C99.87649536 265.26742554 99.87649536 265.26742554 98.00149536 266.20101929 C95.6996932 267.35615162 94.38611166 268.58853641 92.62649536 270.45492554 C89.60353191 273.56736359 86.45318235 276.4268503 83.16946411 279.25961304 C80.40743881 281.67814967 77.70243982 284.15625601 75.00149536 286.64242554 C70.31077482 290.95967396 65.5882948 295.23890598 60.83743286 299.49008179 C57.45256441 302.30933916 57.45256441 302.30933916 56.63598633 306.54504395 C56.63016513 307.97609993 56.6355559 309.40722589 56.64944458 310.83822632 C56.64915253 311.61880402 56.64886047 312.39938171 56.64855957 313.20361328 C56.64995568 315.79010031 56.66552994 318.37630118 56.68118286 320.96273804 C56.684912 322.75349775 56.68775944 324.54425949 56.6897583 326.33502197 C56.69740261 331.05331026 56.71705791 335.77147584 56.73916626 340.48971558 C56.75960754 345.30232076 56.76875633 350.11494573 56.77883911 354.92758179 C56.8003031 364.37425902 56.8354917 373.82081289 56.87649536 383.26742554 C65.12649536 383.26742554 73.37649536 383.26742554 81.87649536 383.26742554 C82.39212036 380.58617554 82.90774536 377.90492554 83.43899536 375.14242554 C87.74433185 354.95680962 98.75072429 343.3188371 114.84524536 331.29867554 C139.06851846 313.18698331 153.23848101 286.9227743 158.12649536 257.39242554 C161.84657443 227.53125028 154.36205162 197.52575631 136.06399536 173.45492554 C117.74776034 150.37062077 91.11573537 133.15146896 61.43411255 129.49447632 C46.62801382 128.18007466 31.22591129 128.09060024 16.87649536 132.26742554 Z M-13.12350464 410.26742554 C-16.04599433 414.65116008 -16.68302864 418.04520153 -16.12350464 423.26742554 C-14.27907509 428.49330926 -11.99588023 430.7030972 -7.12350464 433.26742554 C-3.68120332 433.83958257 -0.29043936 433.81437767 3.19290161 433.78500366 C4.21801849 433.79201294 5.24313538 433.79902222 6.29931641 433.8062439 C9.67948696 433.82381324 13.05881666 433.81220431 16.43899536 433.79867554 C18.792594 433.80137074 21.14619155 433.8052534 23.49978638 433.81027222 C28.42917496 433.81616585 33.35827335 433.80760826 38.28762817 433.78890991 C44.60282999 433.7661209 50.91735181 433.77924463 57.23252869 433.80319977 C62.09159458 433.8176611 66.95049954 433.81305011 71.80957031 433.8026886 C74.13796062 433.80002226 76.46636559 433.80328777 78.79473877 433.81260681 C82.05024869 433.82277744 85.30466085 433.80726278 88.56008911 433.78500366 C89.52026947 433.79310059 90.48044983 433.80119751 91.46972656 433.80953979 C97.09533722 433.73836252 100.45602407 433.09970832 104.87649536 429.26742554 C107.79898506 424.88369099 108.43601936 421.48964954 107.87649536 416.26742554 C106.03206581 411.04154182 103.74887095 408.83175388 98.87649536 406.26742554 C95.43419405 405.6952685 92.04343009 405.7204734 88.56008911 405.74984741 C87.53497223 405.74283813 86.50985535 405.73582886 85.45367432 405.72860718 C82.07350376 405.71103784 78.69417407 405.72264676 75.31399536 405.73617554 C72.96039672 405.73348033 70.60679917 405.72959768 68.25320435 405.72457886 C63.32381576 405.71868522 58.39471737 405.72724282 53.46536255 405.74594116 C47.15016073 405.76873018 40.83563892 405.75560644 34.52046204 405.73165131 C29.66139614 405.71718998 24.80249118 405.72180096 19.94342041 405.73216248 C17.6150301 405.73482881 15.28662514 405.73156331 12.95825195 405.72224426 C9.70274204 405.71207363 6.44832987 405.72758829 3.19290161 405.74984741 C2.23272125 405.74175049 1.27254089 405.73365356 0.28326416 405.72531128 C-5.3423465 405.79648856 -8.70303335 406.43514276 -13.12350464 410.26742554 Z M11.87649536 456.26742554 C13.00874995 467.58997142 15.18115975 475.79634295 23.87649536 483.26742554 C33.26916716 489.60265872 42.98135277 491.40218489 54.12649536 489.64242554 C63.07446054 487.43806458 69.62728339 482.82083705 74.87649536 475.26742554 C78.64420416 468.92301619 79.11480559 463.88432327 79.87649536 456.26742554 C57.43649536 456.26742554 34.99649536 456.26742554 11.87649536 456.26742554 Z " fill="#32CCCC" transform="translate(210.12350463867188,-0.267425537109375)"/>
<path d="M0 0 C2.09293835 1.82211003 4.14679475 3.68221704 6.1875 5.5625 C7.60482422 6.85607422 7.60482422 6.85607422 9.05078125 8.17578125 C33.61048995 31.62387654 48.30768269 65.43078014 49.390625 99.33203125 C49.79266509 125.08549779 44.71773316 148.96689528 32.1875 171.5625 C31.61 172.64144531 31.0325 173.72039062 30.4375 174.83203125 C26.41730751 182.08140613 21.60931543 188.31091108 16.1875 194.5625 C15.53910156 195.34496094 14.89070312 196.12742187 14.22265625 196.93359375 C8.23195793 204.00237275 1.1951435 209.56577788 -6.1953125 215.10546875 C-16.18210629 222.60194226 -23.80831876 229.13738918 -26.27734375 241.98046875 C-26.51686119 243.83426808 -26.67441841 245.6983986 -26.8125 247.5625 C-26.1834375 247.830625 -25.554375 248.09875 -24.90625 248.375 C-14.03659721 253.35146754 -7.55565905 260.58266123 -2.8125 271.5625 C-0.13607493 281.71669451 -1.15228841 292.73010504 -6.1015625 301.96875 C-11.21384129 310.17026677 -17.57690549 315.51976538 -26.8125 318.5625 C-27.8025 318.5625 -28.7925 318.5625 -29.8125 318.5625 C-29.82667969 319.48289062 -29.84085938 320.40328125 -29.85546875 321.3515625 C-30.49656438 338.36658705 -36.2052748 351.39961831 -48.5 363.375 C-59.53800079 372.87994512 -72.30978762 375.92127334 -86.5 375.9375 C-87.60794922 375.96199219 -88.71589844 375.98648437 -89.85742188 376.01171875 C-104.99243323 376.06479302 -117.55074899 370.28065057 -128.45703125 360 C-139.83928972 348.22134447 -143.5662846 334.54411786 -143.8125 318.5625 C-144.70066406 318.45035156 -145.58882813 318.33820313 -146.50390625 318.22265625 C-155.05267182 316.51694033 -161.97694005 310.63579247 -166.8125 303.5625 C-171.87439154 294.3338075 -173.24730101 284.44174622 -171.3515625 274.03125 C-168.58332215 264.78207048 -161.98554825 254.89555161 -153.3671875 250.2421875 C-151.20275488 249.2719246 -149.04010468 248.3757525 -146.8125 247.5625 C-147.63866409 236.40928476 -151.55589547 228.17862593 -159.8125 220.5625 C-162.40249224 218.55351708 -165.05420485 216.66856667 -167.7421875 214.79296875 C-176.54403285 208.39875285 -185.16320049 201.2124737 -191.8125 192.5625 C-192.21533203 192.04880859 -192.61816406 191.53511719 -193.03320312 191.00585938 C-216.14540228 161.37568751 -226.47674326 124.88924681 -222.31640625 87.40234375 C-218.80768512 61.20054599 -207.97154864 37.60904812 -190.8125 17.5625 C-190.11511719 16.74265625 -189.41773438 15.9228125 -188.69921875 15.078125 C-179.00892698 3.99367047 -168.32533705 -4.79502449 -155.8125 -12.4375 C-155.21985352 -12.80117676 -154.62720703 -13.16485352 -154.01660156 -13.53955078 C-106.72067595 -41.99326283 -41.89335269 -35.31557586 0 0 Z M-115.8125 -4.4375 C-117.03453125 -4.0971875 -118.2565625 -3.756875 -119.515625 -3.40625 C-149.36872832 5.6848185 -172.5029663 27.23072707 -187.7578125 53.97265625 C-192.45870786 62.83516677 -195.42010737 71.84958365 -197.8125 81.5625 C-198.06 82.55507812 -198.3075 83.54765625 -198.5625 84.5703125 C-204.36176639 112.84173616 -196.82023369 143.00555018 -181.6484375 167.07421875 C-172.43053581 180.83592711 -161.36675699 190.76907257 -148.19921875 200.4921875 C-132.07147854 212.58102904 -126.49661877 227.40508238 -122.8125 246.5625 C-114.5625 246.5625 -106.3125 246.5625 -97.8125 246.5625 C-97.60870308 236.28730311 -97.44379328 226.01346044 -97.34619045 215.73669529 C-97.29933178 210.96407718 -97.23583898 206.19291993 -97.13354492 201.42114258 C-97.03533948 196.81093565 -96.98185729 192.20212833 -96.95860481 187.59095573 C-96.94204787 185.83699455 -96.90971324 184.08310515 -96.86092949 182.32974434 C-96.39088109 172.51080271 -96.39088109 172.51080271 -99.74417114 163.54122925 C-101.985631 161.27021885 -104.22064976 159.41420903 -106.8125 157.5625 C-108.07249048 156.46974751 -109.32441225 155.36750738 -110.5625 154.25 C-111.20703125 153.69699219 -111.8515625 153.14398438 -112.515625 152.57421875 C-115.50074198 149.95970303 -118.40453255 147.26222213 -121.3125 144.5625 C-125.55710011 140.62395982 -129.83146798 136.73618031 -134.2265625 132.96484375 C-135.8125 131.5625 -135.8125 131.5625 -137.3984375 129.87890625 C-138.73448168 128.33537294 -138.73448168 128.33537294 -140.8125 128.5625 C-142.92587591 124.33574818 -143.65640772 120.2176039 -142.8125 115.5625 C-140.48083811 111.21006447 -140.48083811 111.21006447 -137.8125 109.5625 C-134.26477409 108.66187661 -131.33320446 108.55799132 -127.8125 109.5625 C-121.65249386 113.34284403 -116.49286191 118.51307601 -111.3125 123.5 C-105.92318917 128.65862084 -100.46998366 133.69844393 -94.8125 138.5625 C-94.13767578 139.14306152 -93.46285156 139.72362305 -92.76757812 140.32177734 C-91.1179717 141.73778565 -89.46555323 143.15051703 -87.8125 144.5625 C-84.94255812 143.24370833 -82.72504253 141.79154698 -80.375 139.6875 C-79.68277344 139.06875 -78.99054688 138.45 -78.27734375 137.8125 C-74.18968814 134.08113767 -70.12570312 130.3243535 -66.0625 126.56640625 C-61.68464363 122.51946432 -57.31005389 118.47688971 -52.8125 114.5625 C-52.20019531 114.01335937 -51.58789062 113.46421875 -50.95703125 112.8984375 C-47.02186396 109.67466201 -43.84030168 108.85061014 -38.8984375 109.12890625 C-35.75434341 109.7824539 -33.98102671 111.25844037 -31.8125 113.5625 C-29.82765962 117.53218076 -30.47342307 122.2627051 -31.5625 126.4375 C-32.8125 128.5625 -32.8125 128.5625 -34.6875 129.49609375 C-36.98930216 130.65122608 -38.3028837 131.88361087 -40.0625 133.75 C-43.08546345 136.86243806 -46.23581301 139.72192477 -49.51953125 142.5546875 C-52.28155655 144.97322413 -54.98655554 147.45133047 -57.6875 149.9375 C-62.37822054 154.25474842 -67.10070056 158.53398044 -71.8515625 162.78515625 C-75.23643095 165.60441362 -75.23643095 165.60441362 -76.05300903 169.84011841 C-76.05883023 171.27117439 -76.05343946 172.70230036 -76.03955078 174.13330078 C-76.03984283 174.91387848 -76.04013489 175.69445618 -76.04043579 176.49868774 C-76.03903968 179.08517478 -76.02346542 181.67137564 -76.0078125 184.2578125 C-76.00408337 186.04857221 -76.00123592 187.83933396 -75.99923706 189.63009644 C-75.99159275 194.34838472 -75.97193745 199.06655031 -75.9498291 203.78479004 C-75.92938782 208.59739522 -75.92023903 213.41002019 -75.91015625 218.22265625 C-75.88869226 227.66933348 -75.85350366 237.11588735 -75.8125 246.5625 C-67.5625 246.5625 -59.3125 246.5625 -50.8125 246.5625 C-50.296875 243.88125 -49.78125 241.2 -49.25 238.4375 C-44.94466351 218.25188409 -33.93827108 206.61391156 -17.84375 194.59375 C6.3795231 176.48205777 20.54948565 150.21784876 25.4375 120.6875 C29.15757907 90.82632474 21.67305626 60.82083077 3.375 36.75 C-14.94123502 13.66569523 -41.57325999 -3.55345658 -71.25488281 -7.21044922 C-86.06098154 -8.52485088 -101.46308408 -8.61432529 -115.8125 -4.4375 Z M-145.8125 273.5625 C-148.7349897 277.94623454 -149.372024 281.34027599 -148.8125 286.5625 C-146.96807045 291.78838372 -144.68487559 293.99817166 -139.8125 296.5625 C-136.37019869 297.13465704 -132.97943472 297.10945213 -129.49609375 297.08007812 C-128.47097687 297.0870874 -127.44585999 297.09409668 -126.38967896 297.10131836 C-123.0095084 297.1188877 -119.63017871 297.10727878 -116.25 297.09375 C-113.89640136 297.0964452 -111.54280381 297.10032786 -109.18920898 297.10534668 C-104.2598204 297.11124032 -99.33072201 297.10268272 -94.40136719 297.08398438 C-88.08616537 297.06119536 -81.77164355 297.0743191 -75.45646667 297.09827423 C-70.59740078 297.11273556 -65.73849582 297.10812458 -60.87942505 297.09776306 C-58.55103474 297.09509673 -56.22262978 297.09836223 -53.89425659 297.10768127 C-50.63874667 297.11785191 -47.38433451 297.10233724 -44.12890625 297.08007812 C-43.16872589 297.08817505 -42.20854553 297.09627197 -41.2192688 297.10461426 C-35.59365814 297.03343698 -32.23297129 296.39478278 -27.8125 292.5625 C-24.8900103 288.17876546 -24.252976 284.78472401 -24.8125 279.5625 C-26.65692955 274.33661628 -28.94012441 272.12682834 -33.8125 269.5625 C-37.25480131 268.99034296 -40.64556528 269.01554787 -44.12890625 269.04492188 C-45.15402313 269.0379126 -46.17914001 269.03090332 -47.23532104 269.02368164 C-50.6154916 269.0061123 -53.99482129 269.01772122 -57.375 269.03125 C-59.72859864 269.0285548 -62.08219619 269.02467214 -64.43579102 269.01965332 C-69.3651796 269.01375968 -74.29427799 269.02231728 -79.22363281 269.04101562 C-85.53883463 269.06380464 -91.85335645 269.0506809 -98.16853333 269.02672577 C-103.02759922 269.01226444 -107.88650418 269.01687542 -112.74557495 269.02723694 C-115.07396526 269.02990327 -117.40237022 269.02663777 -119.73074341 269.01731873 C-122.98625333 269.00714809 -126.24066549 269.02266276 -129.49609375 269.04492188 C-130.45627411 269.03682495 -131.41645447 269.02872803 -132.4057312 269.02038574 C-138.03134186 269.09156302 -141.39202871 269.73021722 -145.8125 273.5625 Z M-120.8125 319.5625 C-119.68024541 330.88504589 -117.50783561 339.09141741 -108.8125 346.5625 C-99.4198282 352.89773318 -89.70764259 354.69725936 -78.5625 352.9375 C-69.61453482 350.73313905 -63.06171197 346.11591151 -57.8125 338.5625 C-54.0447912 332.21809065 -53.57418977 327.17939773 -52.8125 319.5625 C-75.2525 319.5625 -97.6925 319.5625 -120.8125 319.5625 Z " fill="#000000" transform="translate(342.8125,136.4375)"/>
<path d="M0 0 C7.64020002 2.30504618 13.64791892 9.36911457 19.2578125 14.76953125 C24.64712333 19.92815209 30.10032884 24.96797518 35.7578125 29.83203125 C36.43263672 30.41259277 37.10746094 30.9931543 37.80273438 31.59130859 C39.4523408 33.0073169 41.10475927 34.42004828 42.7578125 35.83203125 C45.62775438 34.51323958 47.84526997 33.06107823 50.1953125 30.95703125 C51.23365234 30.02890625 51.23365234 30.02890625 52.29296875 29.08203125 C56.38062436 25.35066892 60.44460938 21.59388475 64.5078125 17.8359375 C68.88566887 13.78899557 73.26025861 9.74642096 77.7578125 5.83203125 C78.67626953 5.00832031 78.67626953 5.00832031 79.61328125 4.16796875 C83.50430898 0.98035335 86.70498486 0.06397059 91.60546875 0.33203125 C95.32524209 1.19615282 97.14649615 3.09014908 99.7578125 5.83203125 C101.35900013 9.03440652 101.10876247 12.34952767 100.7578125 15.83203125 C99.04831669 20.21261425 95.77693076 22.71904777 92.265625 25.6796875 C89.18893213 28.32027593 86.22584786 31.07064205 83.2578125 33.83203125 C79.79551746 37.04421159 76.33129854 40.24308569 72.7578125 43.33203125 C72.19708542 43.83820984 71.63635834 44.34438843 71.05863953 44.86590576 C68.7578125 46.83203125 68.7578125 46.83203125 65.57575989 49.14239502 C60.61405323 52.93169125 55.87982436 56.62794854 54.57260132 62.99645996 C54.0047522 67.83111092 54.13550395 72.64730417 54.26953125 77.50390625 C54.27134396 79.28037839 54.26740492 81.05686476 54.25801086 82.83331299 C54.24870985 87.47094647 54.31662922 92.10423083 54.40161133 96.7409668 C54.47461972 101.4873283 54.47327854 106.23363431 54.47851562 110.98046875 C54.49955808 120.26611297 54.60919745 129.54755182 54.7578125 138.83203125 C47.4978125 138.83203125 40.2378125 138.83203125 32.7578125 138.83203125 C32.76941406 136.45048828 32.78101563 134.06894531 32.79296875 131.61523438 C32.82554676 123.72812225 32.81406466 115.84151143 32.78115845 107.95441437 C32.76255848 103.17436203 32.75859168 98.39524846 32.78857422 93.61523438 C32.816988 88.99814484 32.80630018 84.38261964 32.76901245 79.76560974 C32.76159171 78.00825823 32.76803056 76.25078939 32.78884888 74.49354553 C33.14842917 64.87596677 33.14842917 64.87596677 30.03979492 56.0378418 C28.04843349 54.01704345 26.0913669 52.43427348 23.7578125 50.83203125 C22.51763361 49.76132208 21.28679081 48.67959324 20.0703125 47.58203125 C19.41675781 47.02 18.76320312 46.45796875 18.08984375 45.87890625 C15.09510703 43.25036012 12.17817905 40.5426385 9.2578125 37.83203125 C0.85119282 29.9768364 0.85119282 29.9768364 -8.0546875 22.70703125 C-11.87910643 19.42895788 -13.07871589 16.95816901 -13.8046875 11.95703125 C-13.60525042 7.76087503 -12.12153484 5.11892062 -9.2109375 2.1328125 C-6.17794191 0.12886898 -3.5678836 0.02943798 0 0 Z " fill="#32CCCC" transform="translate(212.2421875,244.16796875)"/>
</svg>
